<?xml version="1.0" encoding="UTF-8" standalone="no"?>
<!DOCTYPE svg PUBLIC "-//W3C//DTD SVG 1.1//EN"
 "http://www.w3.org/Graphics/SVG/1.1/DTD/svg11.dtd">
<!-- Generated by graphviz version 2.40.1 (20161225.0304)
 -->
<!-- Title: %0 Pages: 1 -->
<svg width="978pt" height="188pt"
 viewBox="0.00 0.00 978.00 188.00" xmlns="http://www.w3.org/2000/svg" xmlns:xlink="http://www.w3.org/1999/xlink">
<g id="graph0" class="graph" transform="scale(1 1) rotate(0) translate(4 184)">
<title>%0</title>
<polygon fill="#ffffff" stroke="transparent" points="-4,4 -4,-184 974,-184 974,4 -4,4"/>
<!-- data1 -->
<g id="node1" class="node">
<title>data1</title>
<polygon fill="#54ff9f" stroke="#000000" points="128,-180 86,-180 86,-184 74,-184 74,-144 128,-144 128,-180"/>
<polyline fill="none" stroke="#000000" points="74,-180 86,-180 "/>
<text text-anchor="middle" x="101" y="-157.8" font-family="Times,serif" font-size="14.00" fill="#000000">input</text>
</g>
<!-- data1_1 -->
<g id="node2" class="node">
<title>data1_1</title>
<path fill="#7fffd4" stroke="#000000" d="M54,-104.7273C54,-106.5331 41.8982,-108 27,-108 12.1018,-108 0,-106.5331 0,-104.7273 0,-104.7273 0,-75.2727 0,-75.2727 0,-73.4669 12.1018,-72 27,-72 41.8982,-72 54,-73.4669 54,-75.2727 54,-75.2727 54,-104.7273 54,-104.7273"/>
<path fill="none" stroke="#000000" d="M54,-104.7273C54,-102.9214 41.8982,-101.4545 27,-101.4545 12.1018,-101.4545 0,-102.9214 0,-104.7273"/>
<text text-anchor="middle" x="27" y="-87" font-family="Times,serif" font-size="10.00" fill="#000000">geo_df</text>
</g>
<!-- data1&#45;&gt;data1_1 -->
<g id="edge1" class="edge">
<title>data1&#45;&gt;data1_1</title>
<path fill="none" stroke="#000000" d="M82.3267,-143.8314C73.251,-135.001 62.2071,-124.2556 52.3804,-114.6944"/>
<polygon fill="#000000" stroke="#000000" points="54.7638,-112.1301 45.1557,-107.665 49.8823,-117.1472 54.7638,-112.1301"/>
</g>
<!-- data1_2 -->
<g id="node3" class="node">
<title>data1_2</title>
<path fill="#98f5ff" stroke="#000000" d="M130.2525,-104.7273C130.2525,-106.5331 117.1411,-108 101,-108 84.8589,-108 71.7475,-106.5331 71.7475,-104.7273 71.7475,-104.7273 71.7475,-75.2727 71.7475,-75.2727 71.7475,-73.4669 84.8589,-72 101,-72 117.1411,-72 130.2525,-73.4669 130.2525,-75.2727 130.2525,-75.2727 130.2525,-104.7273 130.2525,-104.7273"/>
<path fill="none" stroke="#000000" d="M130.2525,-104.7273C130.2525,-102.9214 117.1411,-101.4545 101,-101.4545 84.8589,-101.4545 71.7475,-102.9214 71.7475,-104.7273"/>
<text text-anchor="middle" x="101" y="-87" font-family="Times,serif" font-size="10.00" fill="#000000">data_cases</text>
</g>
<!-- data1&#45;&gt;data1_2 -->
<g id="edge2" class="edge">
<title>data1&#45;&gt;data1_2</title>
<path fill="none" stroke="#000000" d="M101,-143.8314C101,-136.131 101,-126.9743 101,-118.4166"/>
<polygon fill="#000000" stroke="#000000" points="104.5001,-118.4132 101,-108.4133 97.5001,-118.4133 104.5001,-118.4132"/>
</g>
<!-- data1_3 -->
<g id="node4" class="node">
<title>data1_3</title>
<path fill="#8470ff" stroke="#000000" d="M202,-104.7273C202,-106.5331 189.8982,-108 175,-108 160.1018,-108 148,-106.5331 148,-104.7273 148,-104.7273 148,-75.2727 148,-75.2727 148,-73.4669 160.1018,-72 175,-72 189.8982,-72 202,-73.4669 202,-75.2727 202,-75.2727 202,-104.7273 202,-104.7273"/>
<path fill="none" stroke="#000000" d="M202,-104.7273C202,-102.9214 189.8982,-101.4545 175,-101.4545 160.1018,-101.4545 148,-102.9214 148,-104.7273"/>
<text text-anchor="middle" x="175" y="-87" font-family="Times,serif" font-size="10.00" fill="#000000">simdates</text>
</g>
<!-- data1&#45;&gt;data1_3 -->
<g id="edge3" class="edge">
<title>data1&#45;&gt;data1_3</title>
<path fill="none" stroke="#000000" d="M119.6733,-143.8314C128.749,-135.001 139.7929,-124.2556 149.6196,-114.6944"/>
<polygon fill="#000000" stroke="#000000" points="152.1177,-117.1472 156.8443,-107.665 147.2362,-112.1301 152.1177,-117.1472"/>
</g>
<!-- data2 -->
<g id="node5" class="node">
<title>data2</title>
<polygon fill="#ff6347" stroke="#000000" points="562,-180 520,-180 520,-184 508,-184 508,-144 562,-144 562,-180"/>
<polyline fill="none" stroke="#000000" points="508,-180 520,-180 "/>
<text text-anchor="middle" x="535" y="-157.8" font-family="Times,serif" font-size="14.00" fill="#000000">output</text>
</g>
<!-- data2_1 -->
<g id="node6" class="node">
<title>data2_1</title>
<polygon fill="#ffa500" stroke="#000000" points="297.9529,-108 232.0471,-108 232.0471,-112 220.0471,-112 220.0471,-72 297.9529,-72 297.9529,-108"/>
<polyline fill="none" stroke="#000000" points="220.0471,-108 232.0471,-108 "/>
<text text-anchor="middle" x="259" y="-85.8" font-family="Times,serif" font-size="14.00" fill="#000000">LightPolys</text>
</g>
<!-- data2&#45;&gt;data2_1 -->
<g id="edge4" class="edge">
<title>data2&#45;&gt;data2_1</title>
<path fill="none" stroke="#000000" d="M507.7807,-154.8993C461.242,-142.7588 365.7796,-117.8555 307.5807,-102.6732"/>
<polygon fill="#000000" stroke="#000000" points="308.4306,-99.2779 297.8709,-100.1402 306.6636,-106.0512 308.4306,-99.2779"/>
</g>
<!-- data2_2 -->
<g id="node7" class="node">
<title>data2_2</title>
<polygon fill="#e066ff" stroke="#000000" points="490,-108 448,-108 448,-112 436,-112 436,-72 490,-72 490,-108"/>
<polyline fill="none" stroke="#000000" points="436,-108 448,-108 "/>
<text text-anchor="middle" x="463" y="-85.8" font-family="Times,serif" font-size="14.00" fill="#000000">PriSys</text>
</g>
<!-- data2&#45;&gt;data2_2 -->
<g id="edge8" class="edge">
<title>data2&#45;&gt;data2_2</title>
<path fill="none" stroke="#000000" d="M516.8314,-143.8314C508.2848,-135.2848 497.9443,-124.9443 488.6198,-115.6198"/>
<polygon fill="#000000" stroke="#000000" points="490.9592,-113.0095 481.4133,-108.4133 486.0095,-117.9592 490.9592,-113.0095"/>
</g>
<!-- data2_3 -->
<g id="node8" class="node">
<title>data2_3</title>
<polygon fill="#ff4500" stroke="#000000" points="668.9874,-108 581.0126,-108 581.0126,-112 569.0126,-112 569.0126,-72 668.9874,-72 668.9874,-108"/>
<polyline fill="none" stroke="#000000" points="569.0126,-108 581.0126,-108 "/>
<text text-anchor="middle" x="619" y="-85.8" font-family="Times,serif" font-size="14.00" fill="#000000">PriSys_Outage</text>
</g>
<!-- data2&#45;&gt;data2_3 -->
<g id="edge12" class="edge">
<title>data2&#45;&gt;data2_3</title>
<path fill="none" stroke="#000000" d="M556.1967,-143.8314C566.4434,-135.0485 578.9003,-124.3712 590.0097,-114.8489"/>
<polygon fill="#000000" stroke="#000000" points="592.4952,-117.3282 597.81,-108.1628 587.9397,-112.0134 592.4952,-117.3282"/>
</g>
<!-- data2_4 -->
<g id="node9" class="node">
<title>data2_4</title>
<polygon fill="#dda0dd" stroke="#000000" points="863.4407,-108 818.5593,-108 818.5593,-112 806.5593,-112 806.5593,-72 863.4407,-72 863.4407,-108"/>
<polyline fill="none" stroke="#000000" points="806.5593,-108 818.5593,-108 "/>
<text text-anchor="middle" x="835" y="-85.8" font-family="Times,serif" font-size="14.00" fill="#000000">SecSys</text>
</g>
<!-- data2&#45;&gt;data2_4 -->
<g id="edge16" class="edge">
<title>data2&#45;&gt;data2_4</title>
<path fill="none" stroke="#000000" d="M562.1521,-155.4835C615.5998,-142.6561 734.6049,-114.0948 796.2754,-99.2939"/>
<polygon fill="#000000" stroke="#000000" points="797.4721,-102.6062 806.3791,-96.869 795.8384,-95.7995 797.4721,-102.6062"/>
</g>
<!-- data2_1_1 -->
<g id="node10" class="node">
<title>data2_1_1</title>
<path fill="#ffd700" stroke="#000000" d="M178,-32.7273C178,-34.5331 165.8982,-36 151,-36 136.1018,-36 124,-34.5331 124,-32.7273 124,-32.7273 124,-3.2727 124,-3.2727 124,-1.4669 136.1018,0 151,0 165.8982,0 178,-1.4669 178,-3.2727 178,-3.2727 178,-32.7273 178,-32.7273"/>
<path fill="none" stroke="#000000" d="M178,-32.7273C178,-30.9214 165.8982,-29.4545 151,-29.4545 136.1018,-29.4545 124,-30.9214 124,-32.7273"/>
<text text-anchor="middle" x="151" y="-15.6" font-family="Times,serif" font-size="8.00" fill="#000000">GeoID[1]</text>
</g>
<!-- data2_1&#45;&gt;data2_1_1 -->
<g id="edge5" class="edge">
<title>data2_1&#45;&gt;data2_1_1</title>
<path fill="none" stroke="#000000" d="M231.747,-71.8314C217.5387,-62.3591 200.0253,-50.6835 184.9444,-40.6296"/>
<polygon fill="#000000" stroke="#000000" points="186.6514,-37.5612 176.3894,-34.9263 182.7685,-43.3855 186.6514,-37.5612"/>
</g>
<!-- data2_1_2 -->
<g id="node14" class="node">
<title>data2_1_2</title>
<path fill="#ffd700" stroke="#000000" d="M250,-32.7273C250,-34.5331 237.8982,-36 223,-36 208.1018,-36 196,-34.5331 196,-32.7273 196,-32.7273 196,-3.2727 196,-3.2727 196,-1.4669 208.1018,0 223,0 237.8982,0 250,-1.4669 250,-3.2727 250,-3.2727 250,-32.7273 250,-32.7273"/>
<path fill="none" stroke="#000000" d="M250,-32.7273C250,-30.9214 237.8982,-29.4545 223,-29.4545 208.1018,-29.4545 196,-30.9214 196,-32.7273"/>
<text text-anchor="middle" x="223" y="-15.6" font-family="Times,serif" font-size="8.00" fill="#000000">GeoID[.]</text>
</g>
<!-- data2_1&#45;&gt;data2_1_2 -->
<g id="edge6" class="edge">
<title>data2_1&#45;&gt;data2_1_2</title>
<path fill="none" stroke="#000000" d="M249.9157,-71.8314C245.9385,-63.8771 241.1845,-54.369 236.7861,-45.5723"/>
<polygon fill="#000000" stroke="#000000" points="239.8093,-43.7923 232.2066,-36.4133 233.5483,-46.9228 239.8093,-43.7923"/>
</g>
<!-- data2_1_3 -->
<g id="node18" class="node">
<title>data2_1_3</title>
<path fill="#ffd700" stroke="#000000" d="M322,-32.7273C322,-34.5331 309.8982,-36 295,-36 280.1018,-36 268,-34.5331 268,-32.7273 268,-32.7273 268,-3.2727 268,-3.2727 268,-1.4669 280.1018,0 295,0 309.8982,0 322,-1.4669 322,-3.2727 322,-3.2727 322,-32.7273 322,-32.7273"/>
<path fill="none" stroke="#000000" d="M322,-32.7273C322,-30.9214 309.8982,-29.4545 295,-29.4545 280.1018,-29.4545 268,-30.9214 268,-32.7273"/>
<text text-anchor="middle" x="295" y="-15.6" font-family="Times,serif" font-size="8.00" fill="#000000">GeoID[N]</text>
</g>
<!-- data2_1&#45;&gt;data2_1_3 -->
<g id="edge7" class="edge">
<title>data2_1&#45;&gt;data2_1_3</title>
<path fill="none" stroke="#000000" d="M268.0843,-71.8314C272.0615,-63.8771 276.8155,-54.369 281.2139,-45.5723"/>
<polygon fill="#000000" stroke="#000000" points="284.4517,-46.9228 285.7934,-36.4133 278.1907,-43.7923 284.4517,-46.9228"/>
</g>
<!-- data2_2_1 -->
<g id="node11" class="node">
<title>data2_2_1</title>
<path fill="#ffd700" stroke="#000000" d="M394,-32.7273C394,-34.5331 381.8982,-36 367,-36 352.1018,-36 340,-34.5331 340,-32.7273 340,-32.7273 340,-3.2727 340,-3.2727 340,-1.4669 352.1018,0 367,0 381.8982,0 394,-1.4669 394,-3.2727 394,-3.2727 394,-32.7273 394,-32.7273"/>
<path fill="none" stroke="#000000" d="M394,-32.7273C394,-30.9214 381.8982,-29.4545 367,-29.4545 352.1018,-29.4545 340,-30.9214 340,-32.7273"/>
<text text-anchor="middle" x="367" y="-15.6" font-family="Times,serif" font-size="8.00" fill="#000000">GeoID[1]</text>
</g>
<!-- data2_2&#45;&gt;data2_2_1 -->
<g id="edge9" class="edge">
<title>data2_2&#45;&gt;data2_2_1</title>
<path fill="none" stroke="#000000" d="M438.7751,-71.8314C426.4727,-62.6045 411.3827,-51.287 398.2189,-41.4142"/>
<polygon fill="#000000" stroke="#000000" points="399.9953,-38.3715 389.8953,-35.1715 395.7953,-43.9715 399.9953,-38.3715"/>
</g>
<!-- data2_2_2 -->
<g id="node15" class="node">
<title>data2_2_2</title>
<path fill="#ffd700" stroke="#000000" d="M466,-32.7273C466,-34.5331 453.8982,-36 439,-36 424.1018,-36 412,-34.5331 412,-32.7273 412,-32.7273 412,-3.2727 412,-3.2727 412,-1.4669 424.1018,0 439,0 453.8982,0 466,-1.4669 466,-3.2727 466,-3.2727 466,-32.7273 466,-32.7273"/>
<path fill="none" stroke="#000000" d="M466,-32.7273C466,-30.9214 453.8982,-29.4545 439,-29.4545 424.1018,-29.4545 412,-30.9214 412,-32.7273"/>
<text text-anchor="middle" x="439" y="-15.6" font-family="Times,serif" font-size="8.00" fill="#000000">GeoID[.]</text>
</g>
<!-- data2_2&#45;&gt;data2_2_2 -->
<g id="edge10" class="edge">
<title>data2_2&#45;&gt;data2_2_2</title>
<path fill="none" stroke="#000000" d="M456.9438,-71.8314C454.3488,-64.0463 451.2576,-54.7729 448.3782,-46.1347"/>
<polygon fill="#000000" stroke="#000000" points="451.6205,-44.7933 445.1378,-36.4133 444.9797,-47.0069 451.6205,-44.7933"/>
</g>
<!-- data2_2_3 -->
<g id="node19" class="node">
<title>data2_2_3</title>
<path fill="#ffd700" stroke="#000000" d="M538,-32.7273C538,-34.5331 525.8982,-36 511,-36 496.1018,-36 484,-34.5331 484,-32.7273 484,-32.7273 484,-3.2727 484,-3.2727 484,-1.4669 496.1018,0 511,0 525.8982,0 538,-1.4669 538,-3.2727 538,-3.2727 538,-32.7273 538,-32.7273"/>
<path fill="none" stroke="#000000" d="M538,-32.7273C538,-30.9214 525.8982,-29.4545 511,-29.4545 496.1018,-29.4545 484,-30.9214 484,-32.7273"/>
<text text-anchor="middle" x="511" y="-15.6" font-family="Times,serif" font-size="8.00" fill="#000000">GeoID[N]</text>
</g>
<!-- data2_2&#45;&gt;data2_2_3 -->
<g id="edge11" class="edge">
<title>data2_2&#45;&gt;data2_2_3</title>
<path fill="none" stroke="#000000" d="M475.1124,-71.8314C480.5281,-63.7079 487.0242,-53.9637 492.9921,-45.0118"/>
<polygon fill="#000000" stroke="#000000" points="496.0896,-46.6753 498.7245,-36.4133 490.2653,-42.7923 496.0896,-46.6753"/>
</g>
<!-- data2_3_1 -->
<g id="node12" class="node">
<title>data2_3_1</title>
<path fill="#ffd700" stroke="#000000" d="M610,-32.7273C610,-34.5331 597.8982,-36 583,-36 568.1018,-36 556,-34.5331 556,-32.7273 556,-32.7273 556,-3.2727 556,-3.2727 556,-1.4669 568.1018,0 583,0 597.8982,0 610,-1.4669 610,-3.2727 610,-3.2727 610,-32.7273 610,-32.7273"/>
<path fill="none" stroke="#000000" d="M610,-32.7273C610,-30.9214 597.8982,-29.4545 583,-29.4545 568.1018,-29.4545 556,-30.9214 556,-32.7273"/>
<text text-anchor="middle" x="583" y="-15.6" font-family="Times,serif" font-size="8.00" fill="#000000">GeoID[1]</text>
</g>
<!-- data2_3&#45;&gt;data2_3_1 -->
<g id="edge13" class="edge">
<title>data2_3&#45;&gt;data2_3_1</title>
<path fill="none" stroke="#000000" d="M609.9157,-71.8314C605.9385,-63.8771 601.1845,-54.369 596.7861,-45.5723"/>
<polygon fill="#000000" stroke="#000000" points="599.8093,-43.7923 592.2066,-36.4133 593.5483,-46.9228 599.8093,-43.7923"/>
</g>
<!-- data2_3_2 -->
<g id="node16" class="node">
<title>data2_3_2</title>
<path fill="#ffd700" stroke="#000000" d="M682,-32.7273C682,-34.5331 669.8982,-36 655,-36 640.1018,-36 628,-34.5331 628,-32.7273 628,-32.7273 628,-3.2727 628,-3.2727 628,-1.4669 640.1018,0 655,0 669.8982,0 682,-1.4669 682,-3.2727 682,-3.2727 682,-32.7273 682,-32.7273"/>
<path fill="none" stroke="#000000" d="M682,-32.7273C682,-30.9214 669.8982,-29.4545 655,-29.4545 640.1018,-29.4545 628,-30.9214 628,-32.7273"/>
<text text-anchor="middle" x="655" y="-15.6" font-family="Times,serif" font-size="8.00" fill="#000000">GeoID[.]</text>
</g>
<!-- data2_3&#45;&gt;data2_3_2 -->
<g id="edge14" class="edge">
<title>data2_3&#45;&gt;data2_3_2</title>
<path fill="none" stroke="#000000" d="M628.0843,-71.8314C632.0615,-63.8771 636.8155,-54.369 641.2139,-45.5723"/>
<polygon fill="#000000" stroke="#000000" points="644.4517,-46.9228 645.7934,-36.4133 638.1907,-43.7923 644.4517,-46.9228"/>
</g>
<!-- data2_3_3 -->
<g id="node20" class="node">
<title>data2_3_3</title>
<path fill="#ffd700" stroke="#000000" d="M754,-32.7273C754,-34.5331 741.8982,-36 727,-36 712.1018,-36 700,-34.5331 700,-32.7273 700,-32.7273 700,-3.2727 700,-3.2727 700,-1.4669 712.1018,0 727,0 741.8982,0 754,-1.4669 754,-3.2727 754,-3.2727 754,-32.7273 754,-32.7273"/>
<path fill="none" stroke="#000000" d="M754,-32.7273C754,-30.9214 741.8982,-29.4545 727,-29.4545 712.1018,-29.4545 700,-30.9214 700,-32.7273"/>
<text text-anchor="middle" x="727" y="-15.6" font-family="Times,serif" font-size="8.00" fill="#000000">GeoID[N]</text>
</g>
<!-- data2_3&#45;&gt;data2_3_3 -->
<g id="edge15" class="edge">
<title>data2_3&#45;&gt;data2_3_3</title>
<path fill="none" stroke="#000000" d="M646.253,-71.8314C660.4613,-62.3591 677.9747,-50.6835 693.0556,-40.6296"/>
<polygon fill="#000000" stroke="#000000" points="695.2315,-43.3855 701.6106,-34.9263 691.3486,-37.5612 695.2315,-43.3855"/>
</g>
<!-- data2_4_1 -->
<g id="node13" class="node">
<title>data2_4_1</title>
<path fill="#ffd700" stroke="#000000" d="M826,-32.7273C826,-34.5331 813.8982,-36 799,-36 784.1018,-36 772,-34.5331 772,-32.7273 772,-32.7273 772,-3.2727 772,-3.2727 772,-1.4669 784.1018,0 799,0 813.8982,0 826,-1.4669 826,-3.2727 826,-3.2727 826,-32.7273 826,-32.7273"/>
<path fill="none" stroke="#000000" d="M826,-32.7273C826,-30.9214 813.8982,-29.4545 799,-29.4545 784.1018,-29.4545 772,-30.9214 772,-32.7273"/>
<text text-anchor="middle" x="799" y="-15.6" font-family="Times,serif" font-size="8.00" fill="#000000">GeoID[1]</text>
</g>
<!-- data2_4&#45;&gt;data2_4_1 -->
<g id="edge17" class="edge">
<title>data2_4&#45;&gt;data2_4_1</title>
<path fill="none" stroke="#000000" d="M825.9157,-71.8314C821.9385,-63.8771 817.1845,-54.369 812.7861,-45.5723"/>
<polygon fill="#000000" stroke="#000000" points="815.8093,-43.7923 808.2066,-36.4133 809.5483,-46.9228 815.8093,-43.7923"/>
</g>
<!-- data2_4_2 -->
<g id="node17" class="node">
<title>data2_4_2</title>
<path fill="#ffd700" stroke="#000000" d="M898,-32.7273C898,-34.5331 885.8982,-36 871,-36 856.1018,-36 844,-34.5331 844,-32.7273 844,-32.7273 844,-3.2727 844,-3.2727 844,-1.4669 856.1018,0 871,0 885.8982,0 898,-1.4669 898,-3.2727 898,-3.2727 898,-32.7273 898,-32.7273"/>
<path fill="none" stroke="#000000" d="M898,-32.7273C898,-30.9214 885.8982,-29.4545 871,-29.4545 856.1018,-29.4545 844,-30.9214 844,-32.7273"/>
<text text-anchor="middle" x="871" y="-15.6" font-family="Times,serif" font-size="8.00" fill="#000000">GeoID[.]</text>
</g>
<!-- data2_4&#45;&gt;data2_4_2 -->
<g id="edge18" class="edge">
<title>data2_4&#45;&gt;data2_4_2</title>
<path fill="none" stroke="#000000" d="M844.0843,-71.8314C848.0615,-63.8771 852.8155,-54.369 857.2139,-45.5723"/>
<polygon fill="#000000" stroke="#000000" points="860.4517,-46.9228 861.7934,-36.4133 854.1907,-43.7923 860.4517,-46.9228"/>
</g>
<!-- data2_4_3 -->
<g id="node21" class="node">
<title>data2_4_3</title>
<path fill="#ffd700" stroke="#000000" d="M970,-32.7273C970,-34.5331 957.8982,-36 943,-36 928.1018,-36 916,-34.5331 916,-32.7273 916,-32.7273 916,-3.2727 916,-3.2727 916,-1.4669 928.1018,0 943,0 957.8982,0 970,-1.4669 970,-3.2727 970,-3.2727 970,-32.7273 970,-32.7273"/>
<path fill="none" stroke="#000000" d="M970,-32.7273C970,-30.9214 957.8982,-29.4545 943,-29.4545 928.1018,-29.4545 916,-30.9214 916,-32.7273"/>
<text text-anchor="middle" x="943" y="-15.6" font-family="Times,serif" font-size="8.00" fill="#000000">GeoID[N]</text>
</g>
<!-- data2_4&#45;&gt;data2_4_3 -->
<g id="edge19" class="edge">
<title>data2_4&#45;&gt;data2_4_3</title>
<path fill="none" stroke="#000000" d="M862.253,-71.8314C876.4613,-62.3591 893.9747,-50.6835 909.0556,-40.6296"/>
<polygon fill="#000000" stroke="#000000" points="911.2315,-43.3855 917.6106,-34.9263 907.3486,-37.5612 911.2315,-43.3855"/>
</g>
</g>
</svg>

